<svg width="24" height="24" viewBox="0 0 24 24" fill="none" xmlns="http://www.w3.org/2000/svg">
<path fill-rule="evenodd" clip-rule="evenodd" d="M4.51096 16.9889C3.82968 17.6777 3.82968 18.7946 4.51096 19.4834C5.19223 20.1722 6.2968 20.1722 6.97808 19.4834L12 14.4058L17.0219 19.4834C17.7032 20.1722 18.8077 20.1722 19.489 19.4834C20.1703 18.7946 20.1703 17.6777 19.489 16.9889L14.4671 11.9114L19.3137 7.01108C19.995 6.32225 19.995 5.20545 19.3137 4.51662C18.6324 3.82779 17.5278 3.82779 16.8466 4.51662L12 9.4169L7.15341 4.51662C6.47214 3.82779 5.36757 3.82779 4.68629 4.51662C4.00501 5.20545 4.00501 6.32225 4.68629 7.01108L9.53287 11.9114L4.51096 16.9889Z" fill="black"/>
</svg>
